<svg version="1.1" id="Layer_1" xmlns="http://www.w3.org/2000/svg" xmlns:xlink="http://www.w3.org/1999/xlink" x="0px" y="0px"
	 width="100%" viewBox="0 0 500 500" enable-background="new 0 0 500 500" xml:space="preserve">
<path fill="#000000" opacity="1.000000" stroke="none" 
	d="
M347.000000,501.000000 
	C231.333359,501.000000 116.166725,501.000000 1.000062,501.000000 
	C1.000041,334.333405 1.000041,167.666794 1.000021,1.000151 
	C167.666550,1.000101 334.333099,1.000101 500.999756,1.000050 
	C500.999817,167.666519 500.999817,334.333038 500.999908,500.999786 
	C449.833344,501.000000 398.666656,501.000000 347.000000,501.000000 
M199.012497,402.511841 
	C220.605316,413.856537 244.039291,418.369415 267.997437,419.811584 
	C285.607758,420.871643 303.281281,420.112915 320.817444,417.096069 
	C336.955383,414.319794 352.742798,410.527435 368.570190,404.246094 
	C364.931427,387.055237 361.327667,370.029633 357.700500,352.893555 
	C336.565613,361.825531 315.187744,366.988495 292.732605,366.951050 
	C286.640686,366.940887 280.543793,366.417999 274.459503,365.985626 
	C257.981873,364.814575 242.691727,359.935730 228.792953,350.949127 
	C215.223709,342.175598 205.729507,330.037659 199.169739,315.000000 
	C201.453445,315.000000 203.274002,315.000000 205.094559,315.000000 
	C252.919998,314.999969 300.745514,315.024261 348.570648,314.901459 
	C350.290588,314.897064 352.006805,313.441956 353.724762,312.662933 
	C351.973633,311.775421 350.273071,310.755707 348.449402,310.057770 
	C347.577271,309.723999 346.471710,310.000214 345.471863,310.000214 
	C297.813049,310.000214 250.154053,309.942200 202.495758,310.099274 
	C198.217392,310.113342 196.204407,309.039612 194.911377,304.744568 
	C187.628922,280.554657 185.675079,255.990707 187.844193,230.856400 
	C188.903381,218.583206 191.061371,206.671799 195.071930,195.110901 
	C203.175858,171.750351 217.627106,153.738892 240.281982,142.979950 
	C257.067505,135.008392 274.819122,133.105042 292.941772,136.180649 
	C303.480652,137.969193 313.726501,141.503510 322.319611,148.169540 
	C328.551208,153.003632 334.150421,158.652908 340.127625,164.024979 
	C350.718018,151.545670 361.155914,138.965973 371.972656,126.720970 
	C374.317352,124.066711 374.134613,122.236908 372.388458,119.923088 
	C364.768646,109.826424 355.378937,101.776161 344.100464,96.031410 
	C327.191193,87.418571 308.972992,83.234589 290.247162,82.176987 
	C271.014679,81.090767 251.826263,82.264732 232.921829,86.936165 
	C193.049606,96.788902 164.279678,120.437462 146.157959,156.891495 
	C134.503845,180.335220 129.546982,205.794815 128.196518,231.710358 
	C126.942017,255.784073 127.487808,279.974121 132.135651,303.763275 
	C136.005127,323.568634 142.165146,342.661255 152.992401,359.945923 
	C164.340927,378.062683 179.284912,392.313049 199.012497,402.511841 
M221.039337,259.736816 
	C220.532120,260.361420 220.024918,260.986053 218.696777,262.621613 
	C218.696777,246.900558 218.696777,232.497513 218.696777,218.235748 
	C214.957153,218.235748 211.674469,218.235748 208.268616,218.235748 
	C208.268616,245.203781 208.268616,271.935394 208.268616,298.696930 
	C211.939941,298.696930 215.335022,298.696930 218.999771,298.696930 
	C218.999771,292.588409 219.451279,286.733490 218.871262,280.982574 
	C218.304901,275.367065 221.346039,272.598145 225.193695,269.853363 
	C230.016602,277.331085 234.860901,284.429596 239.267670,291.790100 
	C243.709595,299.209320 248.454300,301.088745 256.997375,298.014526 
	C248.932480,285.901672 240.879852,273.807281 232.842133,261.735229 
	C240.399078,254.576157 247.650330,247.706680 255.785294,240.000000 
	C251.946640,240.000000 249.462952,240.252548 247.050247,239.946198 
	C242.357880,239.350403 238.959244,240.971542 235.814789,244.525192 
	C231.295639,249.632401 226.235153,254.260590 221.039337,259.736816 
M299.000000,252.511688 
	C299.000000,248.414825 299.000000,244.317963 299.000000,240.347473 
	C294.969086,240.347473 291.575378,240.347473 288.000397,240.347473 
	C288.000397,254.168701 287.772217,267.648865 288.113495,281.114655 
	C288.248688,286.448303 289.330841,291.938995 294.078888,295.539398 
	C301.956848,301.513184 313.149872,301.640076 321.477783,296.019775 
	C322.848846,295.094482 324.297363,294.283875 325.889893,293.310333 
	C325.986389,295.428741 326.060211,297.049683 326.137665,298.750183 
	C329.463409,298.750183 332.546844,298.750183 335.734253,298.750183 
	C335.734253,279.112457 335.734253,259.725372 335.734253,240.296112 
	C332.068237,240.296112 328.675232,240.296112 325.000092,240.296112 
	C325.000092,251.720642 325.136597,262.854156 324.909454,273.980255 
	C324.848358,276.971832 323.794647,279.971619 322.996033,282.913177 
	C321.676392,287.773804 314.475830,291.531738 306.799438,290.000702 
	C302.403198,289.123871 299.030579,284.013458 299.007721,277.986969 
	C298.976746,269.827728 299.000031,261.668304 299.000000,252.511688 
M264.100037,240.791412 
	C264.100037,260.159821 264.100037,279.528229 264.100037,298.777374 
	C268.029846,298.777374 271.306519,298.777374 274.616028,298.777374 
	C274.616028,279.070251 274.616028,259.587860 274.616028,240.106216 
	C271.075470,240.106216 267.919464,240.106216 264.100037,240.791412 
M274.998962,220.675934 
	C274.205627,219.785538 273.493927,218.237991 272.603729,218.127411 
	C269.884460,217.789612 267.096527,218.004745 264.261841,218.004745 
	C264.261841,222.234161 264.261841,225.945908 264.261841,229.734802 
	C267.908386,229.734802 271.287933,229.734802 275.000427,229.734802 
	C275.000427,226.859299 275.000427,224.244400 274.998962,220.675934 
z"/>
<path fill="#FFB340" opacity="1.000000" stroke="none" 
	d="
M198.706848,402.285583 
	C179.284912,392.313049 164.340927,378.062683 152.992401,359.945923 
	C142.165146,342.661255 136.005127,323.568634 132.135651,303.763275 
	C127.487808,279.974121 126.942017,255.784073 128.196518,231.710358 
	C129.546982,205.794815 134.503845,180.335220 146.157959,156.891495 
	C164.279678,120.437462 193.049606,96.788902 232.921829,86.936165 
	C251.826263,82.264732 271.014679,81.090767 290.247162,82.176987 
	C308.972992,83.234589 327.191193,87.418571 344.100464,96.031410 
	C355.378937,101.776161 364.768646,109.826424 372.388458,119.923088 
	C374.134613,122.236908 374.317352,124.066711 371.972656,126.720970 
	C361.155914,138.965973 350.718018,151.545670 340.127625,164.024979 
	C334.150421,158.652908 328.551208,153.003632 322.319611,148.169540 
	C313.726501,141.503510 303.480652,137.969193 292.941772,136.180649 
	C274.819122,133.105042 257.067505,135.008392 240.281982,142.979950 
	C217.627106,153.738892 203.175858,171.750351 195.071930,195.110901 
	C191.061371,206.671799 188.903381,218.583206 187.844193,230.856400 
	C185.675079,255.990707 187.628922,280.554657 194.911377,304.744568 
	C196.204407,309.039612 198.217392,310.113342 202.495758,310.099274 
	C250.154053,309.942200 297.813049,310.000214 345.471863,310.000214 
	C346.471710,310.000214 347.577271,309.723999 348.449402,310.057770 
	C350.273071,310.755707 351.973633,311.775421 353.724762,312.662933 
	C352.006805,313.441956 350.290588,314.897064 348.570648,314.901459 
	C300.745514,315.024261 252.919998,314.999969 205.094559,315.000000 
	C203.274002,315.000000 201.453445,315.000000 199.169739,315.000000 
	C205.729507,330.037659 215.223709,342.175598 228.792953,350.949127 
	C242.691727,359.935730 257.981873,364.814575 274.459503,365.985626 
	C280.543793,366.417999 286.640686,366.940887 292.732605,366.951050 
	C315.187744,366.988495 336.565613,361.825531 357.700500,352.893555 
	C361.327667,370.029633 364.931427,387.055237 368.570190,404.246094 
	C352.742798,410.527435 336.955383,414.319794 320.817444,417.096069 
	C303.281281,420.112915 285.607758,420.871643 267.997437,419.811584 
	C244.039291,418.369415 220.605316,413.856537 198.706848,402.285583 
z"/>
<path fill="#FFB340" opacity="1.000000" stroke="none" 
	d="
M221.222534,259.415039 
	C226.235153,254.260590 231.295639,249.632401 235.814789,244.525192 
	C238.959244,240.971542 242.357880,239.350403 247.050247,239.946198 
	C249.462952,240.252548 251.946640,240.000000 255.785294,240.000000 
	C247.650330,247.706680 240.399078,254.576157 232.842133,261.735229 
	C240.879852,273.807281 248.932480,285.901672 256.997375,298.014526 
	C248.454300,301.088745 243.709595,299.209320 239.267670,291.790100 
	C234.860901,284.429596 230.016602,277.331085 225.193695,269.853363 
	C221.346039,272.598145 218.304901,275.367065 218.871262,280.982574 
	C219.451279,286.733490 218.999771,292.588409 218.999771,298.696930 
	C215.335022,298.696930 211.939941,298.696930 208.268616,298.696930 
	C208.268616,271.935394 208.268616,245.203781 208.268616,218.235748 
	C211.674469,218.235748 214.957153,218.235748 218.696777,218.235748 
	C218.696777,232.497513 218.696777,246.900558 218.696777,262.621613 
	C220.024918,260.986053 220.532120,260.361420 221.222534,259.415039 
z"/>
<path fill="#FFB340" opacity="1.000000" stroke="none" 
	d="
M299.000000,253.010315 
	C299.000031,261.668304 298.976746,269.827728 299.007721,277.986969 
	C299.030579,284.013458 302.403198,289.123871 306.799438,290.000702 
	C314.475830,291.531738 321.676392,287.773804 322.996033,282.913177 
	C323.794647,279.971619 324.848358,276.971832 324.909454,273.980255 
	C325.136597,262.854156 325.000092,251.720642 325.000092,240.296112 
	C328.675232,240.296112 332.068237,240.296112 335.734253,240.296112 
	C335.734253,259.725372 335.734253,279.112457 335.734253,298.750183 
	C332.546844,298.750183 329.463409,298.750183 326.137665,298.750183 
	C326.060211,297.049683 325.986389,295.428741 325.889893,293.310333 
	C324.297363,294.283875 322.848846,295.094482 321.477783,296.019775 
	C313.149872,301.640076 301.956848,301.513184 294.078888,295.539398 
	C289.330841,291.938995 288.248688,286.448303 288.113495,281.114655 
	C287.772217,267.648865 288.000397,254.168701 288.000397,240.347473 
	C291.575378,240.347473 294.969086,240.347473 299.000000,240.347473 
	C299.000000,244.317963 299.000000,248.414825 299.000000,253.010315 
z"/>
<path fill="#FFB340" opacity="1.000000" stroke="none" 
	d="
M264.431732,240.448822 
	C267.919464,240.106216 271.075470,240.106216 274.616028,240.106216 
	C274.616028,259.587860 274.616028,279.070251 274.616028,298.777374 
	C271.306519,298.777374 268.029846,298.777374 264.100037,298.777374 
	C264.100037,279.528229 264.100037,260.159821 264.431732,240.448822 
z"/>
<path fill="#FFB340" opacity="1.000000" stroke="none" 
	d="
M274.999695,221.152710 
	C275.000427,224.244400 275.000427,226.859299 275.000427,229.734802 
	C271.287933,229.734802 267.908386,229.734802 264.261841,229.734802 
	C264.261841,225.945908 264.261841,222.234161 264.261841,218.004745 
	C267.096527,218.004745 269.884460,217.789612 272.603729,218.127411 
	C273.493927,218.237991 274.205627,219.785538 274.999695,221.152710 
z"/>
</svg>